<svg width="1920" height="1080" xmlns="http://www.w3.org/2000/svg">
  <defs>
    <linearGradient id="bg" x1="0%" y1="0%" x2="100%" y2="100%">
      <stop offset="0%" style="stop-color:#0f172a"/>
      <stop offset="50%" style="stop-color:#1e293b"/>
      <stop offset="100%" style="stop-color:#0f172a"/>
    </linearGradient>
  </defs>
  <rect width="100%" height="100%" fill="url(#bg)"/>
  
  <!-- Sidebar -->
  <rect x="0" y="0" width="256" height="100%" fill="rgba(15,23,42,0.9)" stroke="#334155" stroke-width="1"/>
  
  <!-- Logo -->
  <text x="30" y="50" font-family="Arial" font-size="20" fill="#22c55e" font-weight="bold">🌿 AgroControl</text>
  <text x="30" y="70" font-family="Arial" font-size="12" fill="#94a3b8">Bajo Cauca, Antioquia</text>
  
  <!-- Menu Items -->
  <rect x="16" y="100" width="224" height="40" rx="8" fill="rgba(34,197,94,0.2)" stroke="#22c55e" stroke-width="1"/>
  <text x="50" y="125" font-family="Arial" font-size="14" fill="#22c55e">📊 Dashboard</text>
  
  <rect x="16" y="150" width="224" height="40" rx="8" fill="transparent"/>
  <text x="50" y="175" font-family="Arial" font-size="14" fill="#94a3b8">🐟 Peces</text>
  
  <rect x="16" y="200" width="224" height="40" rx="8" fill="transparent"/>
  <text x="50" y="225" font-family="Arial" font-size="14" fill="#94a3b8">🐔 Gallinas</text>
  
  <rect x="16" y="250" width="224" height="40" rx="8" fill="transparent"/>
  <text x="50" y="275" font-family="Arial" font-size="14" fill="#94a3b8">🦆 Patos</text>
  
  <rect x="16" y="300" width="224" height="40" rx="8" fill="transparent"/>
  <text x="50" y="325" font-family="Arial" font-size="14" fill="#94a3b8">🐰 Conejos</text>
  
  <rect x="16" y="350" width="224" height="40" rx="8" fill="transparent"/>
  <text x="50" y="375" font-family="Arial" font-size="14" fill="#94a3b8">💰 Finanzas</text>
  
  <rect x="16" y="400" width="224" height="40" rx="8" fill="transparent"/>
  <text x="50" y="425" font-family="Arial" font-size="14" fill="#94a3b8">📦 Inventario</text>
  
  <!-- Header -->
  <rect x="256" y="0" width="calc(100% - 256px)" height="64" fill="rgba(15,23,42,0.6)" stroke="#334155" stroke-width="1"/>
  <text x="280" y="30" font-family="Arial" font-size="18" fill="#e2e8f0" font-weight="bold">Bienvenido</text>
  <text x="280" y="50" font-family="Arial" font-size="12" fill="#94a3b8">Gestiona tu producción animal</text>
  
  <!-- KPI Cards -->
  <rect x="280" y="80" width="280" height="100" rx="12" fill="rgba(30,41,59,0.8)" stroke="#334155" stroke-width="1"/>
  <text x="300" y="110" font-family="Arial" font-size="14" fill="#94a3b8">Ingresos del Mes</text>
  <text x="300" y="145" font-family="Arial" font-size="24" fill="#e2e8f0" font-weight="bold">$4,100,000</text>
  <text x="300" y="165" font-family="Arial" font-size="12" fill="#22c55e">+12%</text>
  
  <rect x="580" y="80" width="280" height="100" rx="12" fill="rgba(30,41,59,0.8)" stroke="#334155" stroke-width="1"/>
  <text x="600" y="110" font-family="Arial" font-size="14" fill="#94a3b8">Producción Total</text>
  <text x="600" y="145" font-family="Arial" font-size="24" fill="#e2e8f0" font-weight="bold">380 kg</text>
  <text x="600" y="165" font-family="Arial" font-size="12" fill="#22c55e">+8%</text>
  
  <rect x="880" y="80" width="280" height="100" rx="12" fill="rgba(30,41,59,0.8)" stroke="#334155" stroke-width="1"/>
  <text x="900" y="110" font-family="Arial" font-size="14" fill="#94a3b8">Crecimiento</text>
  <text x="900" y="145" font-family="Arial" font-size="24" fill="#e2e8f0" font-weight="bold">+12%</text>
  <text x="900" y="165" font-family="Arial" font-size="12" fill="#22c55e">+3%</text>
  
  <rect x="1180" y="80" width="280" height="100" rx="12" fill="rgba(30,41,59,0.8)" stroke="#334155" stroke-width="1"/>
  <text x="1200" y="110" font-family="Arial" font-size="14" fill="#94a3b8">Alertas Activas</text>
  <text x="1200" y="145" font-family="Arial" font-size="24" fill="#e2e8f0" font-weight="bold">3</text>
  <text x="1200" y="165" font-family="Arial" font-size="12" fill="#f59e0b">-2</text>
  
  <!-- Chart Area -->
  <rect x="280" y="200" width="700" height="300" rx="12" fill="rgba(30,41,59,0.8)" stroke="#334155" stroke-width="1"/>
  <text x="300" y="230" font-family="Arial" font-size="16" fill="#e2e8f0" font-weight="bold">Ingresos vs Gastos</text>
  
  <!-- Chart Bars -->
  <rect x="320" y="400" width="80" height="80" fill="#22c55e" rx="4"/>
  <rect x="320" y="440" width="80" height="40" fill="#ef4444" rx="4"/>
  
  <rect x="420" y="380" width="80" height="100" fill="#22c55e" rx="4"/>
  <rect x="420" y="430" width="80" height="50" fill="#ef4444" rx="4"/>
  
  <rect x="520" y="360" width="80" height="120" fill="#22c55e" rx="4"/>
  <rect x="520" y="420" width="80" height="60" fill="#ef4444" rx="4"/>
  
  <rect x="620" y="350" width="80" height="130" fill="#22c55e" rx="4"/>
  <rect x="620" y="410" width="80" height="70" fill="#ef4444" rx="4"/>
  
  <rect x="720" y="360" width="80" height="120" fill="#22c55e" rx="4"/>
  <rect x="720" y="415" width="80" height="65" fill="#ef4444" rx="4"/>
  
  <rect x="820" y="340" width="80" height="140" fill="#22c55e" rx="4"/>
  <rect x="820" y="400" width="80" height="80" fill="#ef4444" rx="4"/>
  
  <!-- Alerts Panel -->
  <rect x="1000" y="200" width="460" height="300" rx="12" fill="rgba(30,41,59,0.8)" stroke="#334155" stroke-width="1"/>
  <text x="1020" y="230" font-family="Arial" font-size="16" fill="#e2e8f0" font-weight="bold">Alertas Pendientes</text>
  
  <!-- Alert Items -->
  <rect x="1020" y="250" width="420" height="60" rx="8" fill="rgba(51,65,85,0.3)"/>
  <circle cx="1050" cy="280" r="15" fill="rgba(59,130,246,0.2)"/>
  <text x="1045" y="285" font-family="Arial" font-size="14" fill="#3b82f6">🐟</text>
  <text x="1080" y="275" font-family="Arial" font-size="14" fill="#e2e8f0">Tilapia lista para cosecha</text>
  <text x="1080" y="295" font-family="Arial" font-size="12" fill="#94a3b8">Estanque 1 - 3 días</text>
  
  <rect x="1020" y="320" width="420" height="60" rx="8" fill="rgba(51,65,85,0.3)"/>
  <circle cx="1050" cy="350" r="15" fill="rgba(245,158,11,0.2)"/>
  <text x="1045" y="355" font-family="Arial" font-size="14" fill="#f59e0b">⚠️</text>
  <text x="1080" y="345" font-family="Arial" font-size="14" fill="#e2e8f0">Comprar alimento gallinas</text>
  <text x="1080" y="365" font-family="Arial" font-size="12" fill="#94a3b8">50 kg restantes</text>
  
  <rect x="1020" y="390" width="420" height="60" rx="8" fill="rgba(51,65,85,0.3)"/>
  <circle cx="1050" cy="420" r="15" fill="rgba(239,68,68,0.2)"/>
  <text x="1045" y="425" font-family="Arial" font-size="14" fill="#ef4444">💰</text>
  <text x="1080" y="415" font-family="Arial" font-size="14" fill="#e2e8f0">Pago proveedor pendiente</text>
  <text x="1080" y="435" font-family="Arial" font-size="12" fill="#94a3b8">$500,000</text>
  
  <!-- Footer Text -->
  <text x="960" y="1060" font-family="Arial" font-size="14" fill="#64748b" text-anchor="middle">🌿 AgroControl - Dashboard de Producción Animal</text>
</svg>
