<svg width="1920" height="1080" xmlns="http://www.w3.org/2000/svg">
  <defs>
    <linearGradient id="bg" x1="0%" y1="0%" x2="100%" y2="100%">
      <stop offset="0%" style="stop-color:#0f172a"/>
      <stop offset="50%" style="stop-color:#1e293b"/>
      <stop offset="100%" style="stop-color:#0f172a"/>
    </linearGradient>
  </defs>
  <rect width="100%" height="100%" fill="url(#bg)"/>
  
  <!-- Sidebar -->
  <rect x="0" y="0" width="256" height="100%" fill="rgba(15,23,42,0.9)" stroke="#334155" stroke-width="1"/>
  
  <!-- Logo -->
  <text x="30" y="50" font-family="Arial" font-size="20" fill="#22c55e" font-weight="bold">🌿 AgroControl</text>
  
  <!-- Menu Items -->
  <rect x="16" y="100" width="224" height="40" rx="8" fill="transparent"/>
  <text x="50" y="125" font-family="Arial" font-size="14" fill="#94a3b8">📊 Dashboard</text>
  
  <rect x="16" y="150" width="224" height="40" rx="8" fill="transparent"/>
  <text x="50" y="175" font-family="Arial" font-size="14" fill="#94a3b8">🐟 Peces</text>
  
  <rect x="16" y="350" width="224" height="40" rx="8" fill="rgba(34,197,94,0.2)" stroke="#22c55e" stroke-width="1"/>
  <text x="50" y="375" font-family="Arial" font-size="14" fill="#22c55e">💰 Finanzas</text>
  
  <!-- Header -->
  <rect x="256" y="0" width="1664" height="64" fill="rgba(15,23,42,0.6)" stroke="#334155" stroke-width="1"/>
  <text x="280" y="30" font-family="Arial" font-size="18" fill="#e2e8f0" font-weight="bold">💰 Finanzas</text>
  <text x="280" y="50" font-family="Arial" font-size="12" fill="#94a3b8">Control de ingresos y gastos</text>
  
  <!-- Button -->
  <rect x="1600" y="12" width="200" height="40" rx="8" fill="#22c55e"/>
  <text x="1620" y="38" font-family="Arial" font-size="14" fill="white" font-weight="bold">+ Nueva Transacción</text>
  
  <!-- Incomes Card -->
  <rect x="280" y="80" width="780" height="280" rx="12" fill="rgba(30,41,59,0.8)" stroke="#334155" stroke-width="1"/>
  <text x="300" y="110" font-family="Arial" font-size="16" fill="#22c55e" font-weight="bold">📈 Ingresos del Mes</text>
  <text x="300" y="160" font-family="Arial" font-size="36" fill="#22c55e" font-weight="bold">$4,100,000</text>
  
  <!-- Income Details -->
  <rect x="300" y="180" width="740" height="40" rx="4" fill="rgba(51,65,85,0.3)"/>
  <text x="320" y="205" font-family="Arial" font-size="14" fill="#94a3b8">Huevos gallina</text>
  <text x="980" y="205" font-family="Arial" font-size="14" fill="#e2e8f0" text-anchor="end">$1,250,000</text>
  
  <rect x="300" y="230" width="740" height="40" rx="4" fill="transparent"/>
  <text x="320" y="255" font-family="Arial" font-size="14" fill="#94a3b8">Huevos pato</text>
  <text x="980" y="255" font-family="Arial" font-size="14" fill="#e2e8f0" text-anchor="end">$640,000</text>
  
  <rect x="300" y="280" width="740" height="40" rx="4" fill="rgba(51,65,85,0.3)"/>
  <text x="320" y="305" font-family="Arial" font-size="14" fill="#94a3b8">Tilapia</text>
  <text x="980" y="305" font-family="Arial" font-size="14" fill="#e2e8f0" text-anchor="end">$1,600,000</text>
  
  <rect x="300" y="330" width="740" height="40" rx="4" fill="transparent"/>
  <text x="320" y="355" font-family="Arial" font-size="14" fill="#94a3b8">Conejos</text>
  <text x="980" y="355" font-family="Arial" font-size="14" fill="#e2e8f0" text-anchor="end">$600,000</text>
  
  <!-- Expenses Card -->
  <rect x="1080" y="80" width="780" height="280" rx="12" fill="rgba(30,41,59,0.8)" stroke="#334155" stroke-width="1"/>
  <text x="1100" y="110" font-family="Arial" font-size="16" fill="#ef4444" font-weight="bold">📉 Gastos del Mes</text>
  <text x="1100" y="160" font-family="Arial" font-size="36" fill="#ef4444" font-weight="bold">$2,300,000</text>
  
  <!-- Expense Details -->
  <rect x="1100" y="180" width="740" height="40" rx="4" fill="rgba(51,65,85,0.3)"/>
  <text x="1120" y="205" font-family="Arial" font-size="14" fill="#94a3b8">Alimento</text>
  <text x="1780" y="205" font-family="Arial" font-size="14" fill="#e2e8f0" text-anchor="end">$1,500,000</text>
  
  <rect x="1100" y="230" width="740" height="40" rx="4" fill="transparent"/>
  <text x="1120" y="255" font-family="Arial" font-size="14" fill="#94a3b8">Medicina</text>
  <text x="1780" y="255" font-family="Arial" font-size="14" fill="#e2e8f0" text-anchor="end">$400,000</text>
  
  <rect x="1100" y="280" width="740" height="40" rx="4" fill="rgba(51,65,85,0.3)"/>
  <text x="1120" y="305" font-family="Arial" font-size="14" fill="#94a3b8">Infraestructura</text>
  <text x="1780" y="305" font-family="Arial" font-size="14" fill="#e2e8f0" text-anchor="end">$300,000</text>
  
  <rect x="1100" y="330" width="740" height="40" rx="4" fill="transparent"/>
  <text x="1120" y="355" font-family="Arial" font-size="14" fill="#94a3b8">Otros</text>
  <text x="1780" y="355" font-family="Arial" font-size="14" fill="#e2e8f0" text-anchor="end">$100,000</text>
  
  <!-- Profit Card -->
  <rect x="280" y="380" width="1600" height="120" rx="12" fill="rgba(30,41,59,0.8)" stroke="#334155" stroke-width="1"/>
  <text x="300" y="410" font-family="Arial" font-size="16" fill="#e2e8f0" font-weight="bold">💰 Utilidad del Mes</text>
  <text x="300" y="460" font-family="Arial" font-size="36" fill="#22c55e" font-weight="bold">$1,800,000</text>
  <text x="600" y="460" font-family="Arial" font-size="16" fill="#22c55e">+43.9% margen</text>
  
  <!-- Footer -->
  <text x="960" y="1060" font-family="Arial" font-size="14" fill="#64748b" text-anchor="middle">💰 Módulo de Finanzas - AgroControl</text>
</svg>
